<svg xmlns="http://www.w3.org/2000/svg" width="37" height="32"><path d="M35.547.607a13.949 13.949 0 01-4.661 1.947l-.093.017a7.222 7.222 0 00-5.484-2.56h-.002c-4.179.169-7.502 3.597-7.502 7.802 0 .097.002.194.005.291V8.09c.006.65.072 1.281.194 1.893l-.011-.064A20.787 20.787 0 012.6 1.531l-.04-.056a8.305 8.305 0 00-1.024 4.022v.043-.002l-.001.107c0 2.7 1.299 5.097 3.307 6.599l.022.015a7.124 7.124 0 01-3.433-1.024l.032.018v.095c-.002.058-.002.126-.002.194a7.972 7.972 0 005.981 7.719l.055.012a6.957 6.957 0 01-1.973.285h-.001a7.28 7.28 0 01-1.473-.155l.047.008c.879 3.157 3.662 5.462 7.006 5.61l.016.001a14.318 14.318 0 01-9.324 3.46h-.002a15.3 15.3 0 01-1.866-.117l.074.008c3.203 2.258 7.184 3.614 11.48 3.628h.003c13.824 0 21.358-12.31 21.358-22.992l-.037-1.046a15.136 15.136 0 003.73-4.111l.037-.065a13.82 13.82 0 01-4.244 1.265l-.072.008A7.904 7.904 0 0035.533.665l.014-.056z"/></svg>