<!-- Generated by IcoMoon.io -->
<svg version="1.1" xmlns="http://www.w3.org/2000/svg" width="37" height="32" viewBox="0 0 37 32">
<title>icon_soc-tw</title>
<path d="M35.547 0.607c-1.362 0.894-2.954 1.575-4.661 1.947l-0.093 0.017c-1.328-1.562-3.29-2.549-5.484-2.56h-0.002c-4.179 0.169-7.502 3.597-7.502 7.802 0 0.097 0.002 0.194 0.005 0.291l-0-0.014c0.006 0.65 0.072 1.281 0.194 1.893l-0.011-0.064c-6.344-0.416-11.864-3.621-15.393-8.388l-0.040-0.056c-0.645 1.162-1.024 2.548-1.024 4.022 0 0.014 0 0.029 0 0.043v-0.002c-0 0.032-0.001 0.070-0.001 0.107 0 2.7 1.299 5.097 3.307 6.599l0.022 0.015c-1.262-0.048-2.428-0.416-3.433-1.024l0.032 0.018v0.095c-0.002 0.058-0.002 0.126-0.002 0.194 0 3.715 2.542 6.836 5.981 7.719l0.055 0.012c-0.591 0.179-1.27 0.283-1.973 0.285h-0.001c-0.506-0.002-0.998-0.055-1.473-0.155l0.047 0.008c0.879 3.157 3.662 5.462 7.006 5.61l0.016 0.001c-2.491 2.143-5.755 3.451-9.324 3.46h-0.002c-0.633-0.001-1.255-0.041-1.866-0.117l0.074 0.008c3.203 2.258 7.184 3.614 11.48 3.628h0.003c13.824 0 21.358-12.31 21.358-22.992l-0.037-1.046c1.504-1.147 2.759-2.533 3.73-4.111l0.037-0.065c-1.254 0.615-2.71 1.063-4.244 1.265l-0.072 0.008c1.578-1.033 2.746-2.578 3.277-4.395l0.014-0.056z"></path>
</svg>
