<svg xmlns="http://www.w3.org/2000/svg" width="5.62" height="10.625" viewBox="0 0 5.62 10.625">
  <defs>
    <style>
      .cls-1 {
        fill: #fff;
        fill-rule: evenodd;
      }
    </style>
  </defs>
  <path id="icon_soc-fb" class="cls-1" d="M1132.29,482.538l-1.35,0a2.4,2.4,0,0,0-2.5,2.615v1.206h-1.35a0.22,0.22,0,0,0-.22.217v1.747a0.219,0.219,0,0,0,.22.216h1.35v4.408a0.219,0.219,0,0,0,.22.217h1.77a0.217,0.217,0,0,0,.21-0.217v-4.408h1.58a0.219,0.219,0,0,0,.22-0.216v-1.747a0.228,0.228,0,0,0-.07-0.154,0.206,0.206,0,0,0-.15-0.063h-1.58v-1.022a0.608,0.608,0,0,1,.74-0.74h0.91a0.211,0.211,0,0,0,.21-0.216v-1.622A0.211,0.211,0,0,0,1132.29,482.538Z" transform="translate(-1126.88 -482.531)"/>
</svg>
