<!-- Generated by IcoMoon.io -->
<svg version="1.1" xmlns="http://www.w3.org/2000/svg" width="17" height="32" viewBox="0 0 17 32">
<title>icon_soc-fb</title>
<path d="M16.294 0.021h-4.066c-0.099-0.005-0.215-0.008-0.331-0.008-3.992 0-7.228 3.236-7.228 7.228 0 0.231 0.011 0.459 0.032 0.684l-0.002-0.029v3.632h-4.066c-0 0-0 0-0 0-0.363 0-0.657 0.292-0.663 0.653v5.262c0.005 0.36 0.298 0.651 0.659 0.651 0.001 0 0.002 0 0.003 0h4.066v13.276c0.003 0.362 0.297 0.654 0.66 0.654 0.001 0 0.002 0 0.003 0h5.331c0.352-0.012 0.632-0.3 0.632-0.653 0-0 0-0 0-0v0-13.276h4.759c0.001 0 0.002 0 0.003 0 0.361 0 0.654-0.29 0.66-0.65v-5.262c-0.009-0.183-0.088-0.346-0.211-0.464l-0-0c-0.113-0.117-0.271-0.19-0.447-0.19-0.002 0-0.004 0-0.005 0h-4.758v-3.078c-0.036-0.137-0.057-0.293-0.057-0.455 0-1.011 0.82-1.831 1.831-1.831 0.162 0 0.318 0.021 0.468 0.060l-0.013-0.003h2.741c0.35-0.002 0.633-0.285 0.633-0.635 0-0.005-0-0.011-0-0.016v0.001-4.885c0-0.009 0.001-0.020 0.001-0.030 0-0.35-0.283-0.634-0.633-0.635h-0z"></path>
</svg>
