<svg xmlns="http://www.w3.org/2000/svg" width="10" height="8.75" viewBox="0 0 10 8.75">
  <defs>
    <style>
      .cls-1 {
        fill: #fff;
        fill-rule: evenodd;
      }
    </style>
  </defs>
  <path id="icon_soc-tw" class="cls-1" d="M1162.22,483.947a3.867,3.867,0,0,1-1.3.537,1.977,1.977,0,0,0-1.5-.7,2.135,2.135,0,0,0-2.05,2.209,2.758,2.758,0,0,0,.05.5,5.683,5.683,0,0,1-4.22-2.309,2.3,2.3,0,0,0-.28,1.111,2.252,2.252,0,0,0,.91,1.838,1.956,1.956,0,0,1-.93-0.275v0.026a2.179,2.179,0,0,0,1.65,2.167,1.958,1.958,0,0,1-.54.078,1.983,1.983,0,0,1-.39-0.04,2.082,2.082,0,0,0,1.92,1.534,3.935,3.935,0,0,1-2.55.946,4.107,4.107,0,0,1-.49-0.03,5.519,5.519,0,0,0,3.14.992c3.78,0,5.84-3.366,5.84-6.287l-0.01-.286a4.106,4.106,0,0,0,1.03-1.142,3.871,3.871,0,0,1-1.18.348A2.153,2.153,0,0,0,1162.22,483.947Z" transform="translate(-1152.5 -483.781)"/>
</svg>
