<svg aria-hidden="true" xmlns="http://www.w3.org/2000/svg" overflow="hidden"><defs><symbol id="icon-icon_parentheses-left" viewBox="0 0 30 32"><path fill="#16ebfe" d="M30.354 10.732L19.424 16l10.93 5.202v10.733L0 15.935 30.354.001v10.732z"/></symbol><symbol id="icon-icon_parentheses-right" viewBox="0 0 37 32"><path fill="#16ebfe" d="M14.4 0L4.381 32H0L10.019 0H14.4zm22.248 16.381l-17.524 9.257v-6.21l6.324-3.01-6.324-3.086v-6.21l17.524 9.257z"/></symbol><symbol id="icon-icon_soc-fb" viewBox="0 0 17 32"><path d="M16.294.021h-4.066a7.228 7.228 0 00-7.527 7.904l-.002-.029v3.632H.633a.664.664 0 00-.663.653v5.262a.66.66 0 00.659.651h4.069V31.37a.66.66 0 00.66.654h5.334a.654.654 0 00.632-.653V18.095h4.762a.66.66 0 00.66-.65v-5.262a.687.687 0 00-.211-.464.619.619 0 00-.447-.19h-4.763V8.451a1.831 1.831 0 012.242-2.226l-.013-.003h2.741a.635.635 0 00.633-.635v-.016.001V.687l.001-.03a.635.635 0 00-.633-.635z"/></symbol><symbol id="icon-icon_soc-tw" viewBox="0 0 37 32"><path d="M35.547.607a13.949 13.949 0 01-4.661 1.947l-.093.017a7.222 7.222 0 00-5.484-2.56h-.002c-4.179.169-7.502 3.597-7.502 7.802 0 .097.002.194.005.291V8.09c.006.65.072 1.281.194 1.893l-.011-.064A20.787 20.787 0 012.6 1.531l-.04-.056a8.305 8.305 0 00-1.024 4.022v.043-.002l-.001.107c0 2.7 1.299 5.097 3.307 6.599l.022.015a7.124 7.124 0 01-3.433-1.024l.032.018v.095c-.002.058-.002.126-.002.194a7.972 7.972 0 005.981 7.719l.055.012a6.957 6.957 0 01-1.973.285h-.001a7.28 7.28 0 01-1.473-.155l.047.008c.879 3.157 3.662 5.462 7.006 5.61l.016.001a14.318 14.318 0 01-9.324 3.46h-.002a15.3 15.3 0 01-1.866-.117l.074.008c3.203 2.258 7.184 3.614 11.48 3.628h.003c13.824 0 21.358-12.31 21.358-22.992l-.037-1.046a15.136 15.136 0 003.73-4.111l.037-.065a13.82 13.82 0 01-4.244 1.265l-.072.008A7.904 7.904 0 0035.533.665l.014-.056z"/></symbol><symbol id="icon-arrow-up" viewBox="0 0 32 32"><path d="M27.414 12.586l-10-10a2 2 0 00-2.828 0l-10 10a2 2 0 102.828 2.828L14 8.828V28a2 2 0 104 0V8.828l6.586 6.586c.39.39.902.586 1.414.586s1.024-.195 1.414-.586a2 2 0 000-2.828z"/></symbol></defs></svg>